{
  "asset": {
    "version": "2.0",
    "generator": "ModelConverterX"
  },
  "extensionsUsed": [],
  "scene": 0,
  "scenes": [
    {
      "nodes": [
        0
      ]
    }
  ],
  "nodes": [
    {
      "name": "node0",
      "children": [
        1
      ]
    },
    {
      "name": "node1",
      "mesh": 0
    }
  ],
  "meshes": [
    {
      "primitives": [
        {
          "attributes": {
            "POSITION": 0,
            "NORMAL": 1,
            "TEXCOORD_0": 2
          },
          "indices": 3,
          "mode": 4,
          "material": 0
        }
      ],
      "name": "part000"
    }
  ],
  "accessors": [
    {
      "bufferView": 1,
      "byteOffset": 0,
      "componentType": 5126,
      "count": 336,
      "type": "VEC3",
      "min": [
        -6.815,
        0.064,
        -11.554
      ],
      "max": [
        6.517,
        2.411,
        7.974
      ]
    },
    {
      "bufferView": 2,
      "byteOffset": 0,
      "componentType": 5126,
      "count": 336,
      "type": "VEC3"
    },
    {
      "bufferView": 3,
      "byteOffset": 0,
      "componentType": 5126,
      "count": 336,
      "type": "VEC2"
    },
    {
      "bufferView": 0,
      "byteOffset": 0,
      "componentType": 5125,
      "count": 504,
      "type": "SCALAR"
    }
  ],
  "materials": [
    {
      "pbrMetallicRoughness": {
        "baseColorFactor": [
          1.0,
          1.0,
          1.0,
          1.0
        ],
        "roughnessFactor": 0.0,
        "metallicFactor": 0.0,
        "baseColorTexture": {
          "index": 0
        }
      },
      "emissiveFactor": [
        0.0,
        0.0,
        0.0
      ],
      "alphaMode": "BLEND"
    }
  ],
  "textures": [
    {
      "source": 0,
      "name": "fence"
    }
  ],
  "images": [
    {
      "uri": "fence.dds"
    }
  ],
  "bufferViews": [
    {
      "buffer": 0,
      "byteOffset": 0,
      "byteLength": 2016
    },
    {
      "buffer": 0,
      "byteOffset": 2016,
      "byteLength": 4032
    },
    {
      "buffer": 0,
      "byteOffset": 6048,
      "byteLength": 4032
    },
    {
      "buffer": 0,
      "byteOffset": 10080,
      "byteLength": 2688
    }
  ],
  "buffers": [
    {
      "byteLength": 12768,
      "uri": "I9_SIXE_Bomba-fence_0121.bin"
    }
  ]
}