{"accessors":[{"bufferView":0,"componentType":5126,"count":134,"min":[-1.4930800199508668,0.050360001623630527,0.15320000052452088],"max":[3.6369199752807619,17.83881950378418,2.4604599475860597],"type":"VEC3","name":"part000_vertices#0_POSITION"},{"bufferView":0,"byteOffset":12,"componentType":5120,"count":134,"type":"VEC4","name":"part000_vertices#0_TANGENT"},{"bufferView":0,"byteOffset":16,"componentType":5120,"count":134,"type":"VEC4","name":"part000_vertices#0_NORMAL"},{"bufferView":0,"byteOffset":20,"componentType":5122,"count":134,"type":"VEC2","name":"part000_vertices#0_TEXCOORD_0"},{"bufferView":0,"byteOffset":24,"componentType":5122,"count":134,"type":"VEC2","name":"part000_vertices#0_TEXCOORD_1"},{"bufferView":0,"byteOffset":28,"componentType":5123,"count":134,"type":"VEC4","name":"part000_vertices#0_COLOR_0"},{"bufferView":1,"componentType":5123,"count":264,"type":"SCALAR","name":"part000_indices#0"},{"bufferView":0,"byteOffset":4824,"componentType":5126,"count":148,"min":[3.5969200134277345,14.733420372009278,-4.029540061950684],"max":[3.866919994354248,17.83881950378418,0.15320000052452088],"type":"VEC3","name":"part001_vertices#0_POSITION"},{"bufferView":0,"byteOffset":4836,"componentType":5120,"count":148,"type":"VEC4","name":"part001_vertices#0_TANGENT"},{"bufferView":0,"byteOffset":4840,"componentType":5120,"count":148,"type":"VEC4","name":"part001_vertices#0_NORMAL"},{"bufferView":0,"byteOffset":4844,"componentType":5122,"count":148,"type":"VEC2","name":"part001_vertices#0_TEXCOORD_0"},{"bufferView":0,"byteOffset":4848,"componentType":5122,"count":148,"type":"VEC2","name":"part001_vertices#0_TEXCOORD_1"},{"bufferView":0,"byteOffset":4852,"componentType":5123,"count":148,"type":"VEC4","name":"part001_vertices#0_COLOR_0"},{"bufferView":1,"byteOffset":528,"componentType":5123,"count":294,"type":"SCALAR","name":"part001_indices#0"},{"bufferView":0,"byteOffset":10152,"componentType":5126,"count":145,"min":[-1.0830800533294678,0.0,-3.559540033340454],"max":[4.036920070648193,18.185529708862306,2.8504600524902345],"type":"VEC3","name":"part002_vertices#0_POSITION"},{"bufferView":0,"byteOffset":10164,"componentType":5120,"count":145,"type":"VEC4","name":"part002_vertices#0_TANGENT"},{"bufferView":0,"byteOffset":10168,"componentType":5120,"count":145,"type":"VEC4","name":"part002_vertices#0_NORMAL"},{"bufferView":0,"byteOffset":10172,"componentType":5122,"count":145,"type":"VEC2","name":"part002_vertices#0_TEXCOORD_0"},{"bufferView":0,"byteOffset":10176,"componentType":5122,"count":145,"type":"VEC2","name":"part002_vertices#0_TEXCOORD_1"},{"bufferView":0,"byteOffset":10180,"componentType":5123,"count":145,"type":"VEC4","name":"part002_vertices#0_COLOR_0"},{"bufferView":1,"byteOffset":1116,"componentType":5123,"count":285,"type":"SCALAR","name":"part002_indices#0"},{"bufferView":0,"byteOffset":15372,"componentType":5126,"count":4,"min":[-1.4930800199508668,14.733420372009278,-4.029540061950684],"max":[-1.4930800199508668,17.83881950378418,0.15320000052452088],"type":"VEC3","name":"part003_vertices#0_POSITION"},{"bufferView":0,"byteOffset":15384,"componentType":5120,"count":4,"type":"VEC4","name":"part003_vertices#0_TANGENT"},{"bufferView":0,"byteOffset":15388,"componentType":5120,"count":4,"type":"VEC4","name":"part003_vertices#0_NORMAL"},{"bufferView":0,"byteOffset":15392,"componentType":5122,"count":4,"type":"VEC2","name":"part003_vertices#0_TEXCOORD_0"},{"bufferView":0,"byteOffset":15396,"componentType":5122,"count":4,"type":"VEC2","name":"part003_vertices#0_TEXCOORD_1"},{"bufferView":0,"byteOffset":15400,"componentType":5123,"count":4,"type":"VEC4","name":"part003_vertices#0_COLOR_0"},{"bufferView":1,"byteOffset":1686,"componentType":5123,"count":6,"type":"SCALAR","name":"part003_indices#0"},{"bufferView":0,"byteOffset":15516,"componentType":5126,"count":36,"min":[-1.5530799627304078,17.915529251098634,-4.089540004730225],"max":[3.6969199180603029,17.94552993774414,2.7004599571228029],"type":"VEC3","name":"part004_vertices#0_POSITION"},{"bufferView":0,"byteOffset":15528,"componentType":5120,"count":36,"type":"VEC4","name":"part004_vertices#0_TANGENT"},{"bufferView":0,"byteOffset":15532,"componentType":5120,"count":36,"type":"VEC4","name":"part004_vertices#0_NORMAL"},{"bufferView":0,"byteOffset":15536,"componentType":5122,"count":36,"type":"VEC2","name":"part004_vertices#0_TEXCOORD_0"},{"bufferView":0,"byteOffset":15540,"componentType":5122,"count":36,"type":"VEC2","name":"part004_vertices#0_TEXCOORD_1"},{"bufferView":0,"byteOffset":15544,"componentType":5123,"count":36,"type":"VEC4","name":"part004_vertices#0_COLOR_0"},{"bufferView":1,"byteOffset":1698,"componentType":5123,"count":102,"type":"SCALAR","name":"part004_indices#0"},{"bufferView":0,"byteOffset":16812,"componentType":5126,"count":20,"min":[-1.5530799627304078,17.83881950378418,-4.089540004730225],"max":[3.6969199180603029,17.94552993774414,0.21320000290870667],"type":"VEC3","name":"part005_vertices#0_POSITION"},{"bufferView":0,"byteOffset":16824,"componentType":5120,"count":20,"type":"VEC4","name":"part005_vertices#0_TANGENT"},{"bufferView":0,"byteOffset":16828,"componentType":5120,"count":20,"type":"VEC4","name":"part005_vertices#0_NORMAL"},{"bufferView":0,"byteOffset":16832,"componentType":5122,"count":20,"type":"VEC2","name":"part005_vertices#0_TEXCOORD_0"},{"bufferView":0,"byteOffset":16836,"componentType":5122,"count":20,"type":"VEC2","name":"part005_vertices#0_TEXCOORD_1"},{"bufferView":0,"byteOffset":16840,"componentType":5123,"count":20,"type":"VEC4","name":"part005_vertices#0_COLOR_0"},{"bufferView":1,"byteOffset":1902,"componentType":5123,"count":30,"type":"SCALAR","name":"part005_indices#0"},{"bufferView":0,"byteOffset":17532,"componentType":5126,"count":28,"min":[-1.5530799627304078,0.13474999368190766,-4.089540004730225],"max":[3.6969199180603029,17.83881950378418,0.21320000290870667],"type":"VEC3","name":"part006_vertices#0_POSITION"},{"bufferView":0,"byteOffset":17544,"componentType":5120,"count":28,"type":"VEC4","name":"part006_vertices#0_TANGENT"},{"bufferView":0,"byteOffset":17548,"componentType":5120,"count":28,"type":"VEC4","name":"part006_vertices#0_NORMAL"},{"bufferView":0,"byteOffset":17552,"componentType":5122,"count":28,"type":"VEC2","name":"part006_vertices#0_TEXCOORD_0"},{"bufferView":0,"byteOffset":17556,"componentType":5122,"count":28,"type":"VEC2","name":"part006_vertices#0_TEXCOORD_1"},{"bufferView":0,"byteOffset":17560,"componentType":5123,"count":28,"type":"VEC4","name":"part006_vertices#0_COLOR_0"},{"bufferView":1,"byteOffset":1962,"componentType":5123,"count":66,"type":"SCALAR","name":"part006_indices#0"},{"bufferView":0,"byteOffset":18540,"componentType":5126,"count":79,"min":[0.8565300107002258,17.915529251098634,-1.1819599866867066],"max":[0.9965299963951111,25.375530242919923,-1.0419600009918213],"type":"VEC3","name":"part007_vertices#0_POSITION"},{"bufferView":0,"byteOffset":18552,"componentType":5120,"count":79,"type":"VEC4","name":"part007_vertices#0_TANGENT"},{"bufferView":0,"byteOffset":18556,"componentType":5120,"count":79,"type":"VEC4","name":"part007_vertices#0_NORMAL"},{"bufferView":0,"byteOffset":18560,"componentType":5122,"count":79,"type":"VEC2","name":"part007_vertices#0_TEXCOORD_0"},{"bufferView":0,"byteOffset":18564,"componentType":5122,"count":79,"type":"VEC2","name":"part007_vertices#0_TEXCOORD_1"},{"bufferView":0,"byteOffset":18568,"componentType":5123,"count":79,"type":"VEC4","name":"part007_vertices#0_COLOR_0"},{"bufferView":1,"byteOffset":2094,"componentType":5123,"count":222,"type":"SCALAR","name":"part007_indices#0"},{"bufferView":0,"byteOffset":21384,"componentType":5126,"count":294,"min":[-1.4930800199508668,14.733420372009278,-4.129539966583252],"max":[3.6369199752807619,17.83881950378418,-3.9895401000976564],"type":"VEC3","name":"part008_vertices#0_POSITION"},{"bufferView":0,"byteOffset":21396,"componentType":5120,"count":294,"type":"VEC4","name":"part008_vertices#0_TANGENT"},{"bufferView":0,"byteOffset":21400,"componentType":5120,"count":294,"type":"VEC4","name":"part008_vertices#0_NORMAL"},{"bufferView":0,"byteOffset":21404,"componentType":5122,"count":294,"type":"VEC2","name":"part008_vertices#0_TEXCOORD_0"},{"bufferView":0,"byteOffset":21408,"componentType":5122,"count":294,"type":"VEC2","name":"part008_vertices#0_TEXCOORD_1"},{"bufferView":0,"byteOffset":21412,"componentType":5123,"count":294,"type":"VEC4","name":"part008_vertices#0_COLOR_0"},{"bufferView":1,"byteOffset":2538,"componentType":5123,"count":468,"type":"SCALAR","name":"part008_indices#0"},{"bufferView":0,"byteOffset":31968,"componentType":5126,"count":17,"min":[-1.0530799627304078,0.0,-3.559540033340454],"max":[3.9769198894500734,0.0,2.8504600524902345],"type":"VEC3","name":"part009_vertices#0_POSITION"},{"bufferView":0,"byteOffset":31980,"componentType":5120,"count":17,"type":"VEC4","name":"part009_vertices#0_TANGENT"},{"bufferView":0,"byteOffset":31984,"componentType":5120,"count":17,"type":"VEC4","name":"part009_vertices#0_NORMAL"},{"bufferView":0,"byteOffset":31988,"componentType":5122,"count":17,"type":"VEC2","name":"part009_vertices#0_TEXCOORD_0"},{"bufferView":0,"byteOffset":31992,"componentType":5122,"count":17,"type":"VEC2","name":"part009_vertices#0_TEXCOORD_1"},{"bufferView":0,"byteOffset":31996,"componentType":5123,"count":17,"type":"VEC4","name":"part009_vertices#0_COLOR_0"},{"bufferView":1,"byteOffset":3474,"componentType":5123,"count":33,"type":"SCALAR","name":"part009_indices#0"},{"bufferView":0,"byteOffset":32580,"componentType":5126,"count":17,"min":[-1.0530799627304078,0.0,-3.559540033340454],"max":[3.9769198894500734,0.0,2.8504600524902345],"type":"VEC3","name":"part010_vertices#0_POSITION"},{"bufferView":0,"byteOffset":32592,"componentType":5120,"count":17,"type":"VEC4","name":"part010_vertices#0_TANGENT"},{"bufferView":0,"byteOffset":32596,"componentType":5120,"count":17,"type":"VEC4","name":"part010_vertices#0_NORMAL"},{"bufferView":0,"byteOffset":32600,"componentType":5122,"count":17,"type":"VEC2","name":"part010_vertices#0_TEXCOORD_0"},{"bufferView":0,"byteOffset":32604,"componentType":5122,"count":17,"type":"VEC2","name":"part010_vertices#0_TEXCOORD_1"},{"bufferView":0,"byteOffset":32608,"componentType":5123,"count":17,"type":"VEC4","name":"part010_vertices#0_COLOR_0"},{"bufferView":1,"byteOffset":3540,"componentType":5123,"count":33,"type":"SCALAR","name":"part010_indices#0"},{"bufferView":0,"byteOffset":33192,"componentType":5126,"count":216,"min":[-1.3719700574874879,17.26215934753418,-4.116680145263672],"max":[-1.3508000373840333,18.122159957885743,-4.0960798263549809],"type":"VEC3","name":"part011_vertices#0_POSITION"},{"bufferView":0,"byteOffset":33204,"componentType":5120,"count":216,"type":"VEC4","name":"part011_vertices#0_TANGENT"},{"bufferView":0,"byteOffset":33208,"componentType":5120,"count":216,"type":"VEC4","name":"part011_vertices#0_NORMAL"},{"bufferView":0,"byteOffset":33212,"componentType":5122,"count":216,"type":"VEC2","name":"part011_vertices#0_TEXCOORD_0"},{"bufferView":0,"byteOffset":33216,"componentType":5122,"count":216,"type":"VEC2","name":"part011_vertices#0_TEXCOORD_1"},{"bufferView":0,"byteOffset":33220,"componentType":5123,"count":216,"type":"VEC4","name":"part011_vertices#0_COLOR_0"},{"bufferView":1,"byteOffset":3606,"componentType":5123,"count":354,"type":"SCALAR","name":"part011_indices#0"},{"bufferView":0,"byteOffset":40968,"componentType":5126,"count":66,"min":[-1.0530799627304078,0.0,-3.559540033340454],"max":[3.176919937133789,14.733420372009278,-2.0395400524139406],"type":"VEC3","name":"part012_vertices#0_POSITION"},{"bufferView":0,"byteOffset":40980,"componentType":5120,"count":66,"type":"VEC4","name":"part012_vertices#0_TANGENT"},{"bufferView":0,"byteOffset":40984,"componentType":5120,"count":66,"type":"VEC4","name":"part012_vertices#0_NORMAL"},{"bufferView":0,"byteOffset":40988,"componentType":5122,"count":66,"type":"VEC2","name":"part012_vertices#0_TEXCOORD_0"},{"bufferView":0,"byteOffset":40992,"componentType":5122,"count":66,"type":"VEC2","name":"part012_vertices#0_TEXCOORD_1"},{"bufferView":0,"byteOffset":40996,"componentType":5123,"count":66,"type":"VEC4","name":"part012_vertices#0_COLOR_0"},{"bufferView":1,"byteOffset":4314,"componentType":5123,"count":132,"type":"SCALAR","name":"part012_indices#0"},{"bufferView":0,"byteOffset":43344,"componentType":5126,"count":4,"min":[-0.9038500189781189,7.434750080108643,-3.559540033340454],"max":[2.986150026321411,7.434750080108643,-2.129539966583252],"type":"VEC3","name":"part013_vertices#0_POSITION"},{"bufferView":0,"byteOffset":43356,"componentType":5120,"count":4,"type":"VEC4","name":"part013_vertices#0_TANGENT"},{"bufferView":0,"byteOffset":43360,"componentType":5120,"count":4,"type":"VEC4","name":"part013_vertices#0_NORMAL"},{"bufferView":0,"byteOffset":43364,"componentType":5122,"count":4,"type":"VEC2","name":"part013_vertices#0_TEXCOORD_0"},{"bufferView":0,"byteOffset":43368,"componentType":5122,"count":4,"type":"VEC2","name":"part013_vertices#0_TEXCOORD_1"},{"bufferView":0,"byteOffset":43372,"componentType":5123,"count":4,"type":"VEC4","name":"part013_vertices#0_COLOR_0"},{"bufferView":1,"byteOffset":4578,"componentType":5123,"count":6,"type":"SCALAR","name":"part013_indices#0"},{"bufferView":0,"byteOffset":43488,"componentType":5126,"count":16,"min":[3.9569199085235597,0.0,-3.204580068588257],"max":[3.9769198894500734,1.2799999713897706,-2.614579916000366],"type":"VEC3","name":"part014_vertices#0_POSITION"},{"bufferView":0,"byteOffset":43500,"componentType":5120,"count":16,"type":"VEC4","name":"part014_vertices#0_TANGENT"},{"bufferView":0,"byteOffset":43504,"componentType":5120,"count":16,"type":"VEC4","name":"part014_vertices#0_NORMAL"},{"bufferView":0,"byteOffset":43508,"componentType":5122,"count":16,"type":"VEC2","name":"part014_vertices#0_TEXCOORD_0"},{"bufferView":0,"byteOffset":43512,"componentType":5122,"count":16,"type":"VEC2","name":"part014_vertices#0_TEXCOORD_1"},{"bufferView":0,"byteOffset":43516,"componentType":5123,"count":16,"type":"VEC4","name":"part014_vertices#0_COLOR_0"},{"bufferView":1,"byteOffset":4590,"componentType":5123,"count":24,"type":"SCALAR","name":"part014_indices#0"},{"bufferView":0,"byteOffset":44064,"componentType":5126,"count":12,"min":[3.176919937133789,1.5327199697494507,-3.559540033340454],"max":[4.036920070648193,2.060930013656616,-2.225330114364624],"type":"VEC3","name":"part015_vertices#0_POSITION"},{"bufferView":0,"byteOffset":44076,"componentType":5120,"count":12,"type":"VEC4","name":"part015_vertices#0_TANGENT"},{"bufferView":0,"byteOffset":44080,"componentType":5120,"count":12,"type":"VEC4","name":"part015_vertices#0_NORMAL"},{"bufferView":0,"byteOffset":44084,"componentType":5122,"count":12,"type":"VEC2","name":"part015_vertices#0_TEXCOORD_0"},{"bufferView":0,"byteOffset":44088,"componentType":5122,"count":12,"type":"VEC2","name":"part015_vertices#0_TEXCOORD_1"},{"bufferView":0,"byteOffset":44092,"componentType":5123,"count":12,"type":"VEC4","name":"part015_vertices#0_COLOR_0"},{"bufferView":1,"byteOffset":4638,"componentType":5123,"count":18,"type":"SCALAR","name":"part015_indices#0"}],"asset":{"generator":"ModelConverterX","version":"2.0","extensions":{"ASOBO_asset_optimized":{"BoundingBoxMax":[4.036920070648193,25.375530242919923,2.8504600524902345],"BoundingBoxMin":[-1.5530799627304078,0.0,-4.129539966583252],"MajorVersion":4,"MinorVersion":2}}},"bufferViews":[{"buffer":0,"byteLength":44496,"byteStride":36,"byteOffset":48,"target":34962,"name":"BufferViewVertexND"},{"buffer":0,"byteLength":4674,"byteOffset":44606,"target":34963,"name":"BufferViewIndex"}],"extensionsUsed":["MSFT_texture_dds","ASOBO_asset_optimized"],"extensionsRequired":["MSFT_texture_dds"],"materials":[{"name":"glTF_Material","doubleSided":true,"pbrMetallicRoughness":{"baseColorFactor":[0.0,0.0,0.0,1.0],"metallicFactor":0.0,"roughnessFactor":0.0}},{"name":"glTF_Materialx","doubleSided":true,"pbrMetallicRoughness":{"baseColorFactor":[0.0,0.0,0.5450980067253113,1.0],"metallicFactor":0.0,"roughnessFactor":0.0}},{"name":"glTF_Materialxx","doubleSided":true,"pbrMetallicRoughness":{"baseColorFactor":[0.2705881893634796,0.4627451002597809,0.5921568870544434,1.0],"metallicFactor":0.0,"roughnessFactor":0.0}},{"name":"glTF_Materialxxx","doubleSided":true,"pbrMetallicRoughness":{"baseColorFactor":[0.46666669845581057,0.5333333015441895,0.6000000238418579,1.0],"metallicFactor":0.0,"roughnessFactor":0.0}},{"name":"glTF_Materialxxxx","pbrMetallicRoughness":{"baseColorFactor":[0.5450980067253113,0.5333333015441895,0.6039215922355652,1.0],"metallicFactor":0.0,"roughnessFactor":0.0}},{"name":"glTF_Materialxxxxx","pbrMetallicRoughness":{"baseColorFactor":[0.8901960849761963,0.882352888584137,0.8705881834030153,1.0],"metallicFactor":0.0,"roughnessFactor":0.0}},{"name":"glTF_Materialxxxxxx","doubleSided":true,"pbrMetallicRoughness":{"metallicFactor":0.0,"roughnessFactor":0.0}},{"name":"glTF_Materialxxxxxxx","doubleSided":true,"pbrMetallicRoughness":{"metallicFactor":0.0,"roughnessFactor":0.0,"baseColorTexture":{"index":0}}},{"name":"glTF_Materialxxxxxxxx","doubleSided":true,"pbrMetallicRoughness":{"metallicFactor":0.0,"roughnessFactor":0.0,"baseColorTexture":{"index":1}}},{"name":"glTF_Materialxxxxxxxxx","doubleSided":true,"pbrMetallicRoughness":{"metallicFactor":0.0,"roughnessFactor":0.0,"baseColorTexture":{"index":2}}},{"name":"glTF_Materialxxxxxxxxxx","doubleSided":true,"pbrMetallicRoughness":{"metallicFactor":0.0,"roughnessFactor":0.0,"baseColorTexture":{"index":3}}},{"name":"glTF_Materialxxxxxxxxxxx","doubleSided":true,"pbrMetallicRoughness":{"metallicFactor":0.0,"roughnessFactor":0.0,"baseColorTexture":{"index":4}}},{"name":"glTF_Materialxxxxxxxxxxxx","doubleSided":true,"pbrMetallicRoughness":{"metallicFactor":0.0,"roughnessFactor":0.0,"baseColorTexture":{"index":5}}},{"name":"glTF_Materialxxxxxxxxxxxxx","doubleSided":true,"pbrMetallicRoughness":{"metallicFactor":0.0,"roughnessFactor":0.0,"baseColorTexture":{"index":6}}},{"name":"glTF_Materialxxxxxxxxxxxxxx","doubleSided":true,"pbrMetallicRoughness":{"metallicFactor":0.0,"roughnessFactor":0.0,"baseColorTexture":{"index":7}}},{"name":"glTF_Materialxxxxxxxxxxxxxxx","doubleSided":true,"pbrMetallicRoughness":{"metallicFactor":0.0,"roughnessFactor":0.0,"baseColorTexture":{"index":8}}}],"meshes":[{"primitives":[{"attributes":{"COLOR_0":5,"NORMAL":2,"POSITION":0,"TANGENT":1,"TEXCOORD_0":3,"TEXCOORD_1":4},"indices":6,"material":7,"mode":4,"extras":{"ASOBO_primitive":{"PrimitiveCount":88,"VertexType":"VTX","VertexVersion":2}}}],"name":"part000"},{"primitives":[{"attributes":{"COLOR_0":12,"NORMAL":9,"POSITION":7,"TANGENT":8,"TEXCOORD_0":10,"TEXCOORD_1":11},"indices":13,"material":8,"mode":4,"extras":{"ASOBO_primitive":{"PrimitiveCount":98,"VertexType":"VTX","VertexVersion":2}}}],"name":"part001"},{"primitives":[{"attributes":{"COLOR_0":19,"NORMAL":16,"POSITION":14,"TANGENT":15,"TEXCOORD_0":17,"TEXCOORD_1":18},"indices":20,"material":3,"mode":4,"extras":{"ASOBO_primitive":{"PrimitiveCount":95,"VertexType":"VTX","VertexVersion":2}}}],"name":"part002"},{"primitives":[{"attributes":{"COLOR_0":26,"NORMAL":23,"POSITION":21,"TANGENT":22,"TEXCOORD_0":24,"TEXCOORD_1":25},"indices":27,"material":9,"mode":4,"extras":{"ASOBO_primitive":{"PrimitiveCount":2,"VertexType":"VTX","VertexVersion":2}}}],"name":"part003"},{"primitives":[{"attributes":{"COLOR_0":33,"NORMAL":30,"POSITION":28,"TANGENT":29,"TEXCOORD_0":31,"TEXCOORD_1":32},"indices":34,"material":1,"mode":4,"extras":{"ASOBO_primitive":{"PrimitiveCount":34,"VertexType":"VTX","VertexVersion":2}}}],"name":"part004"},{"primitives":[{"attributes":{"COLOR_0":40,"NORMAL":37,"POSITION":35,"TANGENT":36,"TEXCOORD_0":38,"TEXCOORD_1":39},"indices":41,"material":2,"mode":4,"extras":{"ASOBO_primitive":{"PrimitiveCount":10,"VertexType":"VTX","VertexVersion":2}}}],"name":"part005"},{"primitives":[{"attributes":{"COLOR_0":47,"NORMAL":44,"POSITION":42,"TANGENT":43,"TEXCOORD_0":45,"TEXCOORD_1":46},"indices":48,"material":0,"mode":4,"extras":{"ASOBO_primitive":{"PrimitiveCount":22,"VertexType":"VTX","VertexVersion":2}}}],"name":"part006"},{"primitives":[{"attributes":{"COLOR_0":54,"NORMAL":51,"POSITION":49,"TANGENT":50,"TEXCOORD_0":52,"TEXCOORD_1":53},"indices":55,"material":6,"mode":4,"extras":{"ASOBO_primitive":{"PrimitiveCount":74,"VertexType":"VTX","VertexVersion":2}}}],"name":"part007"},{"primitives":[{"attributes":{"COLOR_0":61,"NORMAL":58,"POSITION":56,"TANGENT":57,"TEXCOORD_0":59,"TEXCOORD_1":60},"indices":62,"material":10,"mode":4,"extras":{"ASOBO_primitive":{"PrimitiveCount":156,"VertexType":"VTX","VertexVersion":2}}}],"name":"part008"},{"primitives":[{"attributes":{"COLOR_0":68,"NORMAL":65,"POSITION":63,"TANGENT":64,"TEXCOORD_0":66,"TEXCOORD_1":67},"indices":69,"material":4,"mode":4,"extras":{"ASOBO_primitive":{"PrimitiveCount":11,"VertexType":"VTX","VertexVersion":2}}}],"name":"part009"},{"primitives":[{"attributes":{"COLOR_0":75,"NORMAL":72,"POSITION":70,"TANGENT":71,"TEXCOORD_0":73,"TEXCOORD_1":74},"indices":76,"material":5,"mode":4,"extras":{"ASOBO_primitive":{"PrimitiveCount":11,"VertexType":"VTX","VertexVersion":2}}}],"name":"part010"},{"primitives":[{"attributes":{"COLOR_0":82,"NORMAL":79,"POSITION":77,"TANGENT":78,"TEXCOORD_0":80,"TEXCOORD_1":81},"indices":83,"material":15,"mode":4,"extras":{"ASOBO_primitive":{"PrimitiveCount":118,"VertexType":"VTX","VertexVersion":2}}}],"name":"part011"},{"primitives":[{"attributes":{"COLOR_0":89,"NORMAL":86,"POSITION":84,"TANGENT":85,"TEXCOORD_0":87,"TEXCOORD_1":88},"indices":90,"material":11,"mode":4,"extras":{"ASOBO_primitive":{"PrimitiveCount":44,"VertexType":"VTX","VertexVersion":2}}}],"name":"part012"},{"primitives":[{"attributes":{"COLOR_0":96,"NORMAL":93,"POSITION":91,"TANGENT":92,"TEXCOORD_0":94,"TEXCOORD_1":95},"indices":97,"material":12,"mode":4,"extras":{"ASOBO_primitive":{"PrimitiveCount":2,"VertexType":"VTX","VertexVersion":2}}}],"name":"part013"},{"primitives":[{"attributes":{"COLOR_0":103,"NORMAL":100,"POSITION":98,"TANGENT":99,"TEXCOORD_0":101,"TEXCOORD_1":102},"indices":104,"material":14,"mode":4,"extras":{"ASOBO_primitive":{"PrimitiveCount":8,"VertexType":"VTX","VertexVersion":2}}}],"name":"part014"},{"primitives":[{"attributes":{"COLOR_0":110,"NORMAL":107,"POSITION":105,"TANGENT":106,"TEXCOORD_0":108,"TEXCOORD_1":109},"indices":111,"material":13,"mode":4,"extras":{"ASOBO_primitive":{"PrimitiveCount":6,"VertexType":"VTX","VertexVersion":2}}}],"name":"part015"}],"nodes":[{"name":"node0","children":[1,2,3,4,5,6,7,8,9,10,11,12,13,14,15,16]},{"mesh":0,"name":"node1"},{"mesh":1,"name":"node2"},{"mesh":2,"name":"node3"},{"mesh":3,"name":"node4"},{"mesh":4,"name":"node5"},{"mesh":5,"name":"node6"},{"mesh":6,"name":"node7"},{"mesh":7,"name":"node8"},{"mesh":8,"name":"node9"},{"mesh":9,"name":"node10"},{"mesh":10,"name":"node11"},{"mesh":11,"name":"node12"},{"mesh":12,"name":"node13"},{"mesh":13,"name":"node14"},{"mesh":14,"name":"node15"},{"mesh":15,"name":"node16"}],"scene":0,"scenes":[{"nodes":[0]}],"textures":[{"extensions":{"MSFT_texture_dds":{"source":0}}},{"extensions":{"MSFT_texture_dds":{"source":1}}},{"extensions":{"MSFT_texture_dds":{"source":2}}},{"extensions":{"MSFT_texture_dds":{"source":3}}},{"extensions":{"MSFT_texture_dds":{"source":4}}},{"extensions":{"MSFT_texture_dds":{"source":5}}},{"extensions":{"MSFT_texture_dds":{"source":6}}},{"extensions":{"MSFT_texture_dds":{"source":7}}},{"extensions":{"MSFT_texture_dds":{"source":8}}}],"buffers":[{"byteLength":49280,"uri":"TorreSIXE.bin"}],"images":[{"uri":"UNTITLED\\TEXTURE.JPG.DDS","extras":"ASOBO_image_converted_meta"},{"uri":"UNTITLED\\TEXTURE_0.JPG.DDS","extras":"ASOBO_image_converted_meta"},{"uri":"UNTITLED\\TEXTURE_1.JPG.DDS","extras":"ASOBO_image_converted_meta"},{"uri":"UNTITLED\\TEXTURE_2.JPG.DDS","extras":"ASOBO_image_converted_meta"},{"uri":"UNTITLED\\TEXTURE_3.JPG.DDS","extras":"ASOBO_image_converted_meta"},{"uri":"UNTITLED\\TEXTURE_4.JPG.DDS","extras":"ASOBO_image_converted_meta"},{"uri":"UNTITLED\\TEXTURE_5.JPG.DDS","extras":"ASOBO_image_converted_meta"},{"uri":"UNTITLED\\TEXTURE_6.JPG.DDS","extras":"ASOBO_image_converted_meta"},{"uri":"UNTITLED\\TEXTURE_7.JPG.DDS","extras":"ASOBO_image_converted_meta"}]}
