{
  "asset": {
    "version": "2.0",
    "generator": "ModelConverterX"
  },
  "extensionsUsed": [],
  "scene": 0,
  "scenes": [
    {
      "nodes": [
        0
      ]
    }
  ],
  "nodes": [
    {
      "name": "node0",
      "children": [
        1
      ]
    },
    {
      "name": "node1",
      "mesh": 0
    }
  ],
  "meshes": [
    {
      "primitives": [
        {
          "attributes": {
            "POSITION": 0,
            "NORMAL": 1,
            "TEXCOORD_0": 2
          },
          "indices": 3,
          "mode": 4,
          "material": 0
        }
      ],
      "name": "part000"
    }
  ],
  "accessors": [
    {
      "bufferView": 1,
      "byteOffset": 0,
      "componentType": 5126,
      "count": 784,
      "type": "VEC3",
      "min": [
        -2.165,
        0.075,
        -0.026
      ],
      "max": [
        2.017,
        1.371,
        0.026
      ]
    },
    {
      "bufferView": 2,
      "byteOffset": 0,
      "componentType": 5126,
      "count": 784,
      "type": "VEC3"
    },
    {
      "bufferView": 3,
      "byteOffset": 0,
      "componentType": 5126,
      "count": 784,
      "type": "VEC2"
    },
    {
      "bufferView": 0,
      "byteOffset": 0,
      "componentType": 5125,
      "count": 1464,
      "type": "SCALAR"
    }
  ],
  "materials": [
    {
      "pbrMetallicRoughness": {
        "baseColorFactor": [
          1.0,
          1.0,
          1.0,
          1.0
        ],
        "roughnessFactor": 0.0,
        "metallicFactor": 0.0,
        "baseColorTexture": {
          "index": 0
        }
      },
      "emissiveFactor": [
        0.0,
        0.0,
        0.0
      ],
      "alphaMode": "BLEND"
    }
  ],
  "textures": [
    {
      "source": 0,
      "name": "!9_cerca"
    }
  ],
  "images": [
    {
      "uri": "!9_cerca.dds"
    }
  ],
  "bufferViews": [
    {
      "buffer": 0,
      "byteOffset": 0,
      "byteLength": 5856
    },
    {
      "buffer": 0,
      "byteOffset": 5856,
      "byteLength": 9408
    },
    {
      "buffer": 0,
      "byteOffset": 15264,
      "byteLength": 9408
    },
    {
      "buffer": 0,
      "byteOffset": 24672,
      "byteLength": 6272
    }
  ],
  "buffers": [
    {
      "byteLength": 30944,
      "uri": "I9Port__o_2-!9_Cerca.bin"
    }
  ]
}