{
  "asset": {
    "version": "2.0",
    "generator": "ModelConverterX"
  },
  "extensionsUsed": [],
  "scene": 0,
  "scenes": [
    {
      "nodes": [
        0
      ]
    }
  ],
  "nodes": [
    {
      "name": "node0",
      "children": [
        1
      ]
    },
    {
      "name": "node1",
      "mesh": 0
    }
  ],
  "meshes": [
    {
      "primitives": [
        {
          "attributes": {
            "POSITION": 0,
            "NORMAL": 1,
            "TEXCOORD_0": 2
          },
          "indices": 3,
          "mode": 4,
          "material": 0
        }
      ],
      "name": "part000"
    }
  ],
  "accessors": [
    {
      "bufferView": 1,
      "byteOffset": 0,
      "componentType": 5126,
      "count": 86,
      "type": "VEC3",
      "min": [
        -74.285,
        0.006,
        -11.829
      ],
      "max": [
        95.877,
        9.791,
        16.227
      ]
    },
    {
      "bufferView": 2,
      "byteOffset": 0,
      "componentType": 5126,
      "count": 86,
      "type": "VEC3"
    },
    {
      "bufferView": 3,
      "byteOffset": 0,
      "componentType": 5126,
      "count": 86,
      "type": "VEC2"
    },
    {
      "bufferView": 0,
      "byteOffset": 0,
      "componentType": 5125,
      "count": 138,
      "type": "SCALAR"
    }
  ],
  "materials": [
    {
      "pbrMetallicRoughness": {
        "baseColorFactor": [
          1.0,
          1.0,
          1.0,
          1.0
        ],
        "roughnessFactor": 0.0,
        "metallicFactor": 0.0,
        "baseColorTexture": {
          "index": 0
        }
      },
      "emissiveFactor": [
        0.0,
        0.0,
        0.0
      ],
      "emissiveTexture": {
        "index": 1
      }
    }
  ],
  "textures": [
    {
      "source": 0,
      "name": "i9_sixe_hangs"
    },
    {
      "source": 1,
      "name": "i9_sixe_hangs_lit"
    }
  ],
  "images": [
    {
      "uri": "i9_sixe_hangs.dds"
    },
    {
      "uri": "i9_sixe_hangs_lit.dds"
    }
  ],
  "bufferViews": [
    {
      "buffer": 0,
      "byteOffset": 0,
      "byteLength": 552
    },
    {
      "buffer": 0,
      "byteOffset": 552,
      "byteLength": 1032
    },
    {
      "buffer": 0,
      "byteOffset": 1584,
      "byteLength": 1032
    },
    {
      "buffer": 0,
      "byteOffset": 2616,
      "byteLength": 688
    }
  ],
  "buffers": [
    {
      "byteLength": 3304,
      "uri": "I9_SIXE_1-I9_SIXE_hangs.bin"
    }
  ]
}