{"accessors":[{"bufferView":0,"componentType":5126,"count":91,"min":[0.3284299969673157,5.264540195465088,-17.326480865478517],"max":[32.436279296875,8.29358959197998,16.401710510253908],"type":"VEC3","name":"part000_vertices#0_POSITION"},{"bufferView":0,"byteOffset":12,"componentType":5120,"count":91,"type":"VEC4","name":"part000_vertices#0_TANGENT"},{"bufferView":0,"byteOffset":16,"componentType":5120,"count":91,"type":"VEC4","name":"part000_vertices#0_NORMAL"},{"bufferView":0,"byteOffset":20,"componentType":5122,"count":91,"type":"VEC2","name":"part000_vertices#0_TEXCOORD_0"},{"bufferView":0,"byteOffset":24,"componentType":5122,"count":91,"type":"VEC2","name":"part000_vertices#0_TEXCOORD_1"},{"bufferView":0,"byteOffset":28,"componentType":5123,"count":91,"type":"VEC4","name":"part000_vertices#0_COLOR_0"},{"bufferView":1,"componentType":5123,"count":213,"type":"SCALAR","name":"part000_indices#0"},{"bufferView":0,"byteOffset":3276,"componentType":5126,"count":954,"min":[0.3284299969673157,-0.07861000299453736,-17.326480865478517],"max":[32.436279296875,8.78357982635498,16.401710510253908],"type":"VEC3","name":"part001_vertices#0_POSITION"},{"bufferView":0,"byteOffset":3288,"componentType":5120,"count":954,"type":"VEC4","name":"part001_vertices#0_TANGENT"},{"bufferView":0,"byteOffset":3292,"componentType":5120,"count":954,"type":"VEC4","name":"part001_vertices#0_NORMAL"},{"bufferView":0,"byteOffset":3296,"componentType":5122,"count":954,"type":"VEC2","name":"part001_vertices#0_TEXCOORD_0"},{"bufferView":0,"byteOffset":3300,"componentType":5122,"count":954,"type":"VEC2","name":"part001_vertices#0_TEXCOORD_1"},{"bufferView":0,"byteOffset":3304,"componentType":5123,"count":954,"type":"VEC4","name":"part001_vertices#0_COLOR_0"},{"bufferView":1,"byteOffset":426,"componentType":5123,"count":2172,"type":"SCALAR","name":"part001_indices#0"},{"bufferView":0,"byteOffset":37620,"componentType":5126,"count":954,"min":[0.3284299969673157,-0.07861000299453736,-17.326480865478517],"max":[32.436279296875,8.78357982635498,16.401710510253908],"type":"VEC3","name":"part002_vertices#0_POSITION"},{"bufferView":0,"byteOffset":37632,"componentType":5120,"count":954,"type":"VEC4","name":"part002_vertices#0_TANGENT"},{"bufferView":0,"byteOffset":37636,"componentType":5120,"count":954,"type":"VEC4","name":"part002_vertices#0_NORMAL"},{"bufferView":0,"byteOffset":37640,"componentType":5122,"count":954,"type":"VEC2","name":"part002_vertices#0_TEXCOORD_0"},{"bufferView":0,"byteOffset":37644,"componentType":5122,"count":954,"type":"VEC2","name":"part002_vertices#0_TEXCOORD_1"},{"bufferView":0,"byteOffset":37648,"componentType":5123,"count":954,"type":"VEC4","name":"part002_vertices#0_COLOR_0"},{"bufferView":1,"byteOffset":4770,"componentType":5123,"count":2172,"type":"SCALAR","name":"part002_indices#0"},{"bufferView":0,"byteOffset":71964,"componentType":5126,"count":446,"min":[0.6047800183296204,-0.03990999981760979,-16.973649978637697],"max":[32.16630935668945,6.17956018447876,16.040130615234376],"type":"VEC3","name":"part003_vertices#0_POSITION"},{"bufferView":0,"byteOffset":71976,"componentType":5120,"count":446,"type":"VEC4","name":"part003_vertices#0_TANGENT"},{"bufferView":0,"byteOffset":71980,"componentType":5120,"count":446,"type":"VEC4","name":"part003_vertices#0_NORMAL"},{"bufferView":0,"byteOffset":71984,"componentType":5122,"count":446,"type":"VEC2","name":"part003_vertices#0_TEXCOORD_0"},{"bufferView":0,"byteOffset":71988,"componentType":5122,"count":446,"type":"VEC2","name":"part003_vertices#0_TEXCOORD_1"},{"bufferView":0,"byteOffset":71992,"componentType":5123,"count":446,"type":"VEC4","name":"part003_vertices#0_COLOR_0"},{"bufferView":1,"byteOffset":9114,"componentType":5123,"count":834,"type":"SCALAR","name":"part003_indices#0"},{"bufferView":0,"byteOffset":88020,"componentType":5126,"count":8,"min":[16.37660026550293,7.486760139465332,-16.765850067138673],"max":[17.176109313964845,7.886760234832764,-16.737930297851564],"type":"VEC3","name":"part004_vertices#0_POSITION"},{"bufferView":0,"byteOffset":88032,"componentType":5120,"count":8,"type":"VEC4","name":"part004_vertices#0_TANGENT"},{"bufferView":0,"byteOffset":88036,"componentType":5120,"count":8,"type":"VEC4","name":"part004_vertices#0_NORMAL"},{"bufferView":0,"byteOffset":88040,"componentType":5122,"count":8,"type":"VEC2","name":"part004_vertices#0_TEXCOORD_0"},{"bufferView":0,"byteOffset":88044,"componentType":5122,"count":8,"type":"VEC2","name":"part004_vertices#0_TEXCOORD_1"},{"bufferView":0,"byteOffset":88048,"componentType":5123,"count":8,"type":"VEC4","name":"part004_vertices#0_COLOR_0"},{"bufferView":1,"byteOffset":10782,"componentType":5123,"count":12,"type":"SCALAR","name":"part004_indices#0"},{"bufferView":0,"byteOffset":88308,"componentType":5126,"count":560,"min":[26.44870948791504,0.05632000043988228,15.788829803466797],"max":[30.500730514526368,3.4188098907470705,16.08361053466797],"type":"VEC3","name":"part005_vertices#0_POSITION"},{"bufferView":0,"byteOffset":88320,"componentType":5120,"count":560,"type":"VEC4","name":"part005_vertices#0_TANGENT"},{"bufferView":0,"byteOffset":88324,"componentType":5120,"count":560,"type":"VEC4","name":"part005_vertices#0_NORMAL"},{"bufferView":0,"byteOffset":88328,"componentType":5122,"count":560,"type":"VEC2","name":"part005_vertices#0_TEXCOORD_0"},{"bufferView":0,"byteOffset":88332,"componentType":5122,"count":560,"type":"VEC2","name":"part005_vertices#0_TEXCOORD_1"},{"bufferView":0,"byteOffset":88336,"componentType":5123,"count":560,"type":"VEC4","name":"part005_vertices#0_COLOR_0"},{"bufferView":1,"byteOffset":10806,"componentType":5123,"count":1482,"type":"SCALAR","name":"part005_indices#0"},{"bufferView":0,"byteOffset":108468,"componentType":5126,"count":253,"min":[0.5842499732971191,5.141819953918457,-16.76651954650879],"max":[17.196870803833009,7.909359931945801,14.82306957244873],"type":"VEC3","name":"part006_vertices#0_POSITION"},{"bufferView":0,"byteOffset":108480,"componentType":5120,"count":253,"type":"VEC4","name":"part006_vertices#0_TANGENT"},{"bufferView":0,"byteOffset":108484,"componentType":5120,"count":253,"type":"VEC4","name":"part006_vertices#0_NORMAL"},{"bufferView":0,"byteOffset":108488,"componentType":5122,"count":253,"type":"VEC2","name":"part006_vertices#0_TEXCOORD_0"},{"bufferView":0,"byteOffset":108492,"componentType":5122,"count":253,"type":"VEC2","name":"part006_vertices#0_TEXCOORD_1"},{"bufferView":0,"byteOffset":108496,"componentType":5123,"count":253,"type":"VEC4","name":"part006_vertices#0_COLOR_0"},{"bufferView":1,"byteOffset":13770,"componentType":5123,"count":657,"type":"SCALAR","name":"part006_indices#0"},{"bufferView":0,"byteOffset":117576,"componentType":5126,"count":178,"min":[0.5842499732971191,0.0,-12.193079948425293],"max":[29.195140838623048,8.78357982635498,16.07485008239746],"type":"VEC3","name":"part007_vertices#0_POSITION"},{"bufferView":0,"byteOffset":117588,"componentType":5120,"count":178,"type":"VEC4","name":"part007_vertices#0_TANGENT"},{"bufferView":0,"byteOffset":117592,"componentType":5120,"count":178,"type":"VEC4","name":"part007_vertices#0_NORMAL"},{"bufferView":0,"byteOffset":117596,"componentType":5122,"count":178,"type":"VEC2","name":"part007_vertices#0_TEXCOORD_0"},{"bufferView":0,"byteOffset":117600,"componentType":5122,"count":178,"type":"VEC2","name":"part007_vertices#0_TEXCOORD_1"},{"bufferView":0,"byteOffset":117604,"componentType":5123,"count":178,"type":"VEC4","name":"part007_vertices#0_COLOR_0"},{"bufferView":1,"byteOffset":15084,"componentType":5123,"count":438,"type":"SCALAR","name":"part007_indices#0"},{"bufferView":0,"byteOffset":123984,"componentType":5126,"count":140,"min":[0.7943699955940247,0.0,-16.8546199798584],"max":[31.974000930786134,6.130000114440918,15.930330276489258],"type":"VEC3","name":"part008_vertices#0_POSITION"},{"bufferView":0,"byteOffset":123996,"componentType":5120,"count":140,"type":"VEC4","name":"part008_vertices#0_TANGENT"},{"bufferView":0,"byteOffset":124000,"componentType":5120,"count":140,"type":"VEC4","name":"part008_vertices#0_NORMAL"},{"bufferView":0,"byteOffset":124004,"componentType":5122,"count":140,"type":"VEC2","name":"part008_vertices#0_TEXCOORD_0"},{"bufferView":0,"byteOffset":124008,"componentType":5122,"count":140,"type":"VEC2","name":"part008_vertices#0_TEXCOORD_1"},{"bufferView":0,"byteOffset":124012,"componentType":5123,"count":140,"type":"VEC4","name":"part008_vertices#0_COLOR_0"},{"bufferView":1,"byteOffset":15960,"componentType":5123,"count":372,"type":"SCALAR","name":"part008_indices#0"},{"bufferView":0,"byteOffset":129024,"componentType":5126,"count":52,"min":[0.3430899977684021,5.613379955291748,-16.95669937133789],"max":[32.4233512878418,8.103580474853516,15.98196029663086],"type":"VEC3","name":"part009_vertices#0_POSITION"},{"bufferView":0,"byteOffset":129036,"componentType":5120,"count":52,"type":"VEC4","name":"part009_vertices#0_TANGENT"},{"bufferView":0,"byteOffset":129040,"componentType":5120,"count":52,"type":"VEC4","name":"part009_vertices#0_NORMAL"},{"bufferView":0,"byteOffset":129044,"componentType":5122,"count":52,"type":"VEC2","name":"part009_vertices#0_TEXCOORD_0"},{"bufferView":0,"byteOffset":129048,"componentType":5122,"count":52,"type":"VEC2","name":"part009_vertices#0_TEXCOORD_1"},{"bufferView":0,"byteOffset":129052,"componentType":5123,"count":52,"type":"VEC4","name":"part009_vertices#0_COLOR_0"},{"bufferView":1,"byteOffset":16704,"componentType":5123,"count":138,"type":"SCALAR","name":"part009_indices#0"},{"bufferView":0,"byteOffset":130896,"componentType":5126,"count":32,"min":[8.75216007232666,0.0,-16.268159866333009],"max":[24.70524024963379,5.615449905395508,-15.561169624328614],"type":"VEC3","name":"part010_vertices#0_POSITION"},{"bufferView":0,"byteOffset":130908,"componentType":5120,"count":32,"type":"VEC4","name":"part010_vertices#0_TANGENT"},{"bufferView":0,"byteOffset":130912,"componentType":5120,"count":32,"type":"VEC4","name":"part010_vertices#0_NORMAL"},{"bufferView":0,"byteOffset":130916,"componentType":5122,"count":32,"type":"VEC2","name":"part010_vertices#0_TEXCOORD_0"},{"bufferView":0,"byteOffset":130920,"componentType":5122,"count":32,"type":"VEC2","name":"part010_vertices#0_TEXCOORD_1"},{"bufferView":0,"byteOffset":130924,"componentType":5123,"count":32,"type":"VEC4","name":"part010_vertices#0_COLOR_0"},{"bufferView":1,"byteOffset":16980,"componentType":5123,"count":48,"type":"SCALAR","name":"part010_indices#0"},{"bufferView":0,"byteOffset":132048,"componentType":5126,"count":100,"min":[13.38634967803955,0.0,15.434920310974121],"max":[13.486350059509278,2.0799999237060549,15.534919738769532],"type":"VEC3","name":"part011_vertices#0_POSITION"},{"bufferView":0,"byteOffset":132060,"componentType":5120,"count":100,"type":"VEC4","name":"part011_vertices#0_TANGENT"},{"bufferView":0,"byteOffset":132064,"componentType":5120,"count":100,"type":"VEC4","name":"part011_vertices#0_NORMAL"},{"bufferView":0,"byteOffset":132068,"componentType":5122,"count":100,"type":"VEC2","name":"part011_vertices#0_TEXCOORD_0"},{"bufferView":0,"byteOffset":132072,"componentType":5122,"count":100,"type":"VEC2","name":"part011_vertices#0_TEXCOORD_1"},{"bufferView":0,"byteOffset":132076,"componentType":5123,"count":100,"type":"VEC4","name":"part011_vertices#0_COLOR_0"},{"bufferView":1,"byteOffset":17076,"componentType":5123,"count":300,"type":"SCALAR","name":"part011_indices#0"},{"bufferView":0,"byteOffset":135648,"componentType":5126,"count":386,"min":[13.372260093688965,2.0799999237060549,15.332220077514649],"max":[13.486339569091797,2.276439905166626,15.534040451049805],"type":"VEC3","name":"part012_vertices#0_POSITION"},{"bufferView":0,"byteOffset":135660,"componentType":5120,"count":386,"type":"VEC4","name":"part012_vertices#0_TANGENT"},{"bufferView":0,"byteOffset":135664,"componentType":5120,"count":386,"type":"VEC4","name":"part012_vertices#0_NORMAL"},{"bufferView":0,"byteOffset":135668,"componentType":5122,"count":386,"type":"VEC2","name":"part012_vertices#0_TEXCOORD_0"},{"bufferView":0,"byteOffset":135672,"componentType":5122,"count":386,"type":"VEC2","name":"part012_vertices#0_TEXCOORD_1"},{"bufferView":0,"byteOffset":135676,"componentType":5123,"count":386,"type":"VEC4","name":"part012_vertices#0_COLOR_0"},{"bufferView":1,"byteOffset":17676,"componentType":5123,"count":1944,"type":"SCALAR","name":"part012_indices#0"},{"bufferView":0,"byteOffset":149544,"componentType":5126,"count":48,"min":[0.6047800183296204,5.131820201873779,14.786820411682129],"max":[0.6125500202178955,5.481820106506348,14.794580459594727],"type":"VEC3","name":"part013_vertices#0_POSITION"},{"bufferView":0,"byteOffset":149556,"componentType":5120,"count":48,"type":"VEC4","name":"part013_vertices#0_TANGENT"},{"bufferView":0,"byteOffset":149560,"componentType":5120,"count":48,"type":"VEC4","name":"part013_vertices#0_NORMAL"},{"bufferView":0,"byteOffset":149564,"componentType":5122,"count":48,"type":"VEC2","name":"part013_vertices#0_TEXCOORD_0"},{"bufferView":0,"byteOffset":149568,"componentType":5122,"count":48,"type":"VEC2","name":"part013_vertices#0_TEXCOORD_1"},{"bufferView":0,"byteOffset":149572,"componentType":5123,"count":48,"type":"VEC4","name":"part013_vertices#0_COLOR_0"},{"bufferView":1,"byteOffset":21564,"componentType":5123,"count":144,"type":"SCALAR","name":"part013_indices#0"},{"bufferView":0,"byteOffset":151272,"componentType":5126,"count":48,"min":[0.6047800183296204,5.131820201873779,14.786820411682129],"max":[0.6125500202178955,5.481820106506348,14.794580459594727],"type":"VEC3","name":"part014_vertices#0_POSITION"},{"bufferView":0,"byteOffset":151284,"componentType":5120,"count":48,"type":"VEC4","name":"part014_vertices#0_TANGENT"},{"bufferView":0,"byteOffset":151288,"componentType":5120,"count":48,"type":"VEC4","name":"part014_vertices#0_NORMAL"},{"bufferView":0,"byteOffset":151292,"componentType":5122,"count":48,"type":"VEC2","name":"part014_vertices#0_TEXCOORD_0"},{"bufferView":0,"byteOffset":151296,"componentType":5122,"count":48,"type":"VEC2","name":"part014_vertices#0_TEXCOORD_1"},{"bufferView":0,"byteOffset":151300,"componentType":5123,"count":48,"type":"VEC4","name":"part014_vertices#0_COLOR_0"},{"bufferView":1,"byteOffset":21852,"componentType":5123,"count":144,"type":"SCALAR","name":"part014_indices#0"},{"bufferView":0,"byteOffset":153000,"componentType":5126,"count":8,"min":[29.512399673461915,2.0725300312042238,-15.903559684753418],"max":[30.429100036621095,3.0065701007843019,-15.871549606323243],"type":"VEC3","name":"part015_vertices#0_POSITION"},{"bufferView":0,"byteOffset":153012,"componentType":5120,"count":8,"type":"VEC4","name":"part015_vertices#0_TANGENT"},{"bufferView":0,"byteOffset":153016,"componentType":5120,"count":8,"type":"VEC4","name":"part015_vertices#0_NORMAL"},{"bufferView":0,"byteOffset":153020,"componentType":5122,"count":8,"type":"VEC2","name":"part015_vertices#0_TEXCOORD_0"},{"bufferView":0,"byteOffset":153024,"componentType":5122,"count":8,"type":"VEC2","name":"part015_vertices#0_TEXCOORD_1"},{"bufferView":0,"byteOffset":153028,"componentType":5123,"count":8,"type":"VEC4","name":"part015_vertices#0_COLOR_0"},{"bufferView":1,"byteOffset":22140,"componentType":5123,"count":12,"type":"SCALAR","name":"part015_indices#0"}],"asset":{"generator":"ModelConverterX","version":"2.0","extensions":{"ASOBO_asset_optimized":{"BoundingBoxMax":[32.436279296875,8.78357982635498,16.401710510253908],"BoundingBoxMin":[0.3284299969673157,-0.07861000299453736,-17.326480865478517],"MajorVersion":4,"MinorVersion":2}}},"bufferViews":[{"buffer":0,"byteLength":153288,"byteStride":36,"byteOffset":56,"target":34962,"name":"BufferViewVertexND"},{"buffer":0,"byteLength":22164,"byteOffset":153452,"target":34963,"name":"BufferViewIndex"}],"extensionsUsed":["MSFT_texture_dds","ASOBO_asset_optimized"],"extensionsRequired":["MSFT_texture_dds"],"materials":[{"name":"glTF_Material","doubleSided":true,"pbrMetallicRoughness":{"baseColorFactor":[0.0,0.0,0.0,1.0],"metallicFactor":0.0,"roughnessFactor":0.0}},{"name":"glTF_Materialx","pbrMetallicRoughness":{"baseColorFactor":[1.0,0.0,0.0,1.0],"metallicFactor":0.0,"roughnessFactor":0.0}},{"name":"glTF_Materialxx","doubleSided":true,"pbrMetallicRoughness":{"baseColorFactor":[1.0,0.0,0.0,1.0],"metallicFactor":0.0,"roughnessFactor":0.0}},{"name":"glTF_Materialxxx","doubleSided":true,"pbrMetallicRoughness":{"baseColorFactor":[0.6627451181411743,0.6627451181411743,0.6627451181411743,1.0],"metallicFactor":0.0,"roughnessFactor":0.0}},{"name":"glTF_Materialxxxx","doubleSided":true,"pbrMetallicRoughness":{"baseColorFactor":[0.9607843160629273,0.8705881834030153,0.7019608020782471,1.0],"metallicFactor":0.0,"roughnessFactor":0.0}},{"name":"glTF_Materialxxxxx","doubleSided":true,"pbrMetallicRoughness":{"baseColorFactor":[0.2745097875595093,0.5098038911819458,0.7058823704719544,1.0],"metallicFactor":0.0,"roughnessFactor":0.0}},{"name":"glTF_Materialxxxxxx","pbrMetallicRoughness":{"baseColorFactor":[0.2745097875595093,0.5098038911819458,0.7058823704719544,1.0],"metallicFactor":0.0,"roughnessFactor":0.0}},{"name":"glTF_Materialxxxxxxx","doubleSided":true,"pbrMetallicRoughness":{"baseColorFactor":[0.40392160415649416,0.6196078062057495,0.7098038792610169,1.0],"metallicFactor":0.0,"roughnessFactor":0.0}},{"name":"glTF_Materialxxxxxxxx","pbrMetallicRoughness":{"baseColorFactor":[0.6705881953239441,0.6901960968971252,0.800000011920929,1.0],"metallicFactor":0.0,"roughnessFactor":0.0}},{"name":"glTF_Materialxxxxxxxxx","doubleSided":true,"pbrMetallicRoughness":{"baseColorFactor":[0.8627451062202455,0.8627451062202455,0.8627451062202455,1.0],"metallicFactor":0.0,"roughnessFactor":0.0}},{"name":"glTF_Materialxxxxxxxxxx","pbrMetallicRoughness":{"baseColorFactor":[0.8627451062202455,0.8627451062202455,0.8627451062202455,1.0],"metallicFactor":0.0,"roughnessFactor":0.0}},{"name":"glTF_Materialxxxxxxxxxxx","pbrMetallicRoughness":{"metallicFactor":0.0,"roughnessFactor":0.0}},{"name":"glTF_Materialxxxxxxxxxxxx","doubleSided":true,"pbrMetallicRoughness":{"metallicFactor":0.0,"roughnessFactor":0.0,"baseColorTexture":{"index":0}}},{"name":"glTF_Materialxxxxxxxxxxxxx","alphaMode":"BLEND","pbrMetallicRoughness":{"metallicFactor":0.0,"roughnessFactor":0.0,"baseColorTexture":{"index":1}}},{"name":"glTF_Materialxxxxxxxxxxxxxx","doubleSided":true,"pbrMetallicRoughness":{"metallicFactor":0.0,"roughnessFactor":0.0,"baseColorTexture":{"index":2}}},{"name":"glTF_Materialxxxxxxxxxxxxxxx","pbrMetallicRoughness":{"metallicFactor":0.0,"roughnessFactor":0.0,"baseColorTexture":{"index":3}}}],"meshes":[{"primitives":[{"attributes":{"COLOR_0":5,"NORMAL":2,"POSITION":0,"TANGENT":1,"TEXCOORD_0":3,"TEXCOORD_1":4},"indices":6,"material":3,"mode":4,"extras":{"ASOBO_primitive":{"PrimitiveCount":71,"VertexType":"VTX","VertexVersion":2}}}],"name":"part000"},{"primitives":[{"attributes":{"COLOR_0":12,"NORMAL":9,"POSITION":7,"TANGENT":8,"TEXCOORD_0":10,"TEXCOORD_1":11},"indices":13,"material":11,"mode":4,"extras":{"ASOBO_primitive":{"PrimitiveCount":724,"VertexType":"VTX","VertexVersion":2}}}],"name":"part001"},{"primitives":[{"attributes":{"COLOR_0":19,"NORMAL":16,"POSITION":14,"TANGENT":15,"TEXCOORD_0":17,"TEXCOORD_1":18},"indices":20,"material":8,"mode":4,"extras":{"ASOBO_primitive":{"PrimitiveCount":724,"VertexType":"VTX","VertexVersion":2}}}],"name":"part002"},{"primitives":[{"attributes":{"COLOR_0":26,"NORMAL":23,"POSITION":21,"TANGENT":22,"TEXCOORD_0":24,"TEXCOORD_1":25},"indices":27,"material":5,"mode":4,"extras":{"ASOBO_primitive":{"PrimitiveCount":278,"VertexType":"VTX","VertexVersion":2}}}],"name":"part003"},{"primitives":[{"attributes":{"COLOR_0":33,"NORMAL":30,"POSITION":28,"TANGENT":29,"TEXCOORD_0":31,"TEXCOORD_1":32},"indices":34,"material":13,"mode":4,"extras":{"ASOBO_primitive":{"PrimitiveCount":4,"VertexType":"VTX","VertexVersion":2}}}],"name":"part004"},{"primitives":[{"attributes":{"COLOR_0":40,"NORMAL":37,"POSITION":35,"TANGENT":36,"TEXCOORD_0":38,"TEXCOORD_1":39},"indices":41,"material":12,"mode":4,"extras":{"ASOBO_primitive":{"PrimitiveCount":494,"VertexType":"VTX","VertexVersion":2}}}],"name":"part005"},{"primitives":[{"attributes":{"COLOR_0":47,"NORMAL":44,"POSITION":42,"TANGENT":43,"TEXCOORD_0":45,"TEXCOORD_1":46},"indices":48,"material":9,"mode":4,"extras":{"ASOBO_primitive":{"PrimitiveCount":219,"VertexType":"VTX","VertexVersion":2}}}],"name":"part006"},{"primitives":[{"attributes":{"COLOR_0":54,"NORMAL":51,"POSITION":49,"TANGENT":50,"TEXCOORD_0":52,"TEXCOORD_1":53},"indices":55,"material":0,"mode":4,"extras":{"ASOBO_primitive":{"PrimitiveCount":146,"VertexType":"VTX","VertexVersion":2}}}],"name":"part007"},{"primitives":[{"attributes":{"COLOR_0":61,"NORMAL":58,"POSITION":56,"TANGENT":57,"TEXCOORD_0":59,"TEXCOORD_1":60},"indices":62,"material":7,"mode":4,"extras":{"ASOBO_primitive":{"PrimitiveCount":124,"VertexType":"VTX","VertexVersion":2}}}],"name":"part008"},{"primitives":[{"attributes":{"COLOR_0":68,"NORMAL":65,"POSITION":63,"TANGENT":64,"TEXCOORD_0":66,"TEXCOORD_1":67},"indices":69,"material":14,"mode":4,"extras":{"ASOBO_primitive":{"PrimitiveCount":46,"VertexType":"VTX","VertexVersion":2}}}],"name":"part009"},{"primitives":[{"attributes":{"COLOR_0":75,"NORMAL":72,"POSITION":70,"TANGENT":71,"TEXCOORD_0":73,"TEXCOORD_1":74},"indices":76,"material":4,"mode":4,"extras":{"ASOBO_primitive":{"PrimitiveCount":16,"VertexType":"VTX","VertexVersion":2}}}],"name":"part010"},{"primitives":[{"attributes":{"COLOR_0":82,"NORMAL":79,"POSITION":77,"TANGENT":78,"TEXCOORD_0":80,"TEXCOORD_1":81},"indices":83,"material":1,"mode":4,"extras":{"ASOBO_primitive":{"PrimitiveCount":100,"VertexType":"VTX","VertexVersion":2}}}],"name":"part011"},{"primitives":[{"attributes":{"COLOR_0":89,"NORMAL":86,"POSITION":84,"TANGENT":85,"TEXCOORD_0":87,"TEXCOORD_1":88},"indices":90,"material":2,"mode":4,"extras":{"ASOBO_primitive":{"PrimitiveCount":648,"VertexType":"VTX","VertexVersion":2}}}],"name":"part012"},{"primitives":[{"attributes":{"COLOR_0":96,"NORMAL":93,"POSITION":91,"TANGENT":92,"TEXCOORD_0":94,"TEXCOORD_1":95},"indices":97,"material":6,"mode":4,"extras":{"ASOBO_primitive":{"PrimitiveCount":48,"VertexType":"VTX","VertexVersion":2}}}],"name":"part013"},{"primitives":[{"attributes":{"COLOR_0":103,"NORMAL":100,"POSITION":98,"TANGENT":99,"TEXCOORD_0":101,"TEXCOORD_1":102},"indices":104,"material":10,"mode":4,"extras":{"ASOBO_primitive":{"PrimitiveCount":48,"VertexType":"VTX","VertexVersion":2}}}],"name":"part014"},{"primitives":[{"attributes":{"COLOR_0":110,"NORMAL":107,"POSITION":105,"TANGENT":106,"TEXCOORD_0":108,"TEXCOORD_1":109},"indices":111,"material":15,"mode":4,"extras":{"ASOBO_primitive":{"PrimitiveCount":4,"VertexType":"VTX","VertexVersion":2}}}],"name":"part015"}],"nodes":[{"name":"node0","children":[1,2,3,4,5,6,7,8,9,10,11,12,13,14,15,16]},{"mesh":0,"name":"node1"},{"mesh":1,"name":"node2"},{"mesh":2,"name":"node3"},{"mesh":3,"name":"node4"},{"mesh":4,"name":"node5"},{"mesh":5,"name":"node6"},{"mesh":6,"name":"node7"},{"mesh":7,"name":"node8"},{"mesh":8,"name":"node9"},{"mesh":9,"name":"node10"},{"mesh":10,"name":"node11"},{"mesh":11,"name":"node12"},{"mesh":12,"name":"node13"},{"mesh":13,"name":"node14"},{"mesh":14,"name":"node15"},{"mesh":15,"name":"node16"}],"scene":0,"scenes":[{"nodes":[0]}],"textures":[{"extensions":{"MSFT_texture_dds":{"source":0}}},{"extensions":{"MSFT_texture_dds":{"source":1}}},{"extensions":{"MSFT_texture_dds":{"source":2}}},{"extensions":{"MSFT_texture_dds":{"source":3}}}],"buffers":[{"byteLength":175616,"uri":"Hangar1.bin"}],"images":[{"uri":"UNTITLED\\TEXTURE.JPG.DDS","extras":"ASOBO_image_converted_meta"},{"uri":"UNTITLED\\TEXTURE_0.JPG.DDS","extras":"ASOBO_image_converted_meta"},{"uri":"UNTITLED\\TEXTURE_1.JPG.DDS","extras":"ASOBO_image_converted_meta"},{"uri":"UNTITLED\\TEXTURE_2.PNG.DDS","extras":"ASOBO_image_converted_meta"}]}
