{
  "asset": {
    "version": "2.0",
    "generator": "ModelConverterX"
  },
  "extensionsUsed": [],
  "scene": 0,
  "scenes": [
    {
      "nodes": [
        0
      ]
    }
  ],
  "nodes": [
    {
      "name": "node0",
      "children": [
        1,
        2,
        3,
        4,
        5,
        6,
        7,
        8,
        9,
        10,
        11,
        12,
        13,
        14,
        15,
        16
      ]
    },
    {
      "name": "node1",
      "mesh": 0
    },
    {
      "name": "node2",
      "mesh": 1
    },
    {
      "name": "node3",
      "mesh": 2
    },
    {
      "name": "node4",
      "mesh": 3
    },
    {
      "name": "node5",
      "mesh": 4
    },
    {
      "name": "node6",
      "mesh": 5
    },
    {
      "name": "node7",
      "mesh": 6
    },
    {
      "name": "node8",
      "mesh": 7
    },
    {
      "name": "node9",
      "mesh": 8
    },
    {
      "name": "node10",
      "mesh": 9
    },
    {
      "name": "node11",
      "mesh": 10
    },
    {
      "name": "node12",
      "mesh": 11
    },
    {
      "name": "node13",
      "mesh": 12
    },
    {
      "name": "node14",
      "mesh": 13
    },
    {
      "name": "node15",
      "mesh": 14
    },
    {
      "name": "node16",
      "mesh": 15
    }
  ],
  "meshes": [
    {
      "primitives": [
        {
          "attributes": {
            "POSITION": 0,
            "NORMAL": 1,
            "TEXCOORD_0": 2
          },
          "indices": 3,
          "mode": 4,
          "material": 7
        }
      ],
      "name": "part000"
    },
    {
      "primitives": [
        {
          "attributes": {
            "POSITION": 4,
            "NORMAL": 5,
            "TEXCOORD_0": 6
          },
          "indices": 7,
          "mode": 4,
          "material": 8
        }
      ],
      "name": "part001"
    },
    {
      "primitives": [
        {
          "attributes": {
            "POSITION": 8,
            "NORMAL": 9,
            "TEXCOORD_0": 10
          },
          "indices": 11,
          "mode": 4,
          "material": 3
        }
      ],
      "name": "part002"
    },
    {
      "primitives": [
        {
          "attributes": {
            "POSITION": 12,
            "NORMAL": 13,
            "TEXCOORD_0": 14
          },
          "indices": 15,
          "mode": 4,
          "material": 9
        }
      ],
      "name": "part003"
    },
    {
      "primitives": [
        {
          "attributes": {
            "POSITION": 16,
            "NORMAL": 17,
            "TEXCOORD_0": 18
          },
          "indices": 19,
          "mode": 4,
          "material": 1
        }
      ],
      "name": "part004"
    },
    {
      "primitives": [
        {
          "attributes": {
            "POSITION": 20,
            "NORMAL": 21,
            "TEXCOORD_0": 22
          },
          "indices": 23,
          "mode": 4,
          "material": 2
        }
      ],
      "name": "part005"
    },
    {
      "primitives": [
        {
          "attributes": {
            "POSITION": 24,
            "NORMAL": 25,
            "TEXCOORD_0": 26
          },
          "indices": 27,
          "mode": 4,
          "material": 0
        }
      ],
      "name": "part006"
    },
    {
      "primitives": [
        {
          "attributes": {
            "POSITION": 28,
            "NORMAL": 29,
            "TEXCOORD_0": 30
          },
          "indices": 31,
          "mode": 4,
          "material": 6
        }
      ],
      "name": "part007"
    },
    {
      "primitives": [
        {
          "attributes": {
            "POSITION": 32,
            "NORMAL": 33,
            "TEXCOORD_0": 34
          },
          "indices": 35,
          "mode": 4,
          "material": 10
        }
      ],
      "name": "part008"
    },
    {
      "primitives": [
        {
          "attributes": {
            "POSITION": 36,
            "NORMAL": 37,
            "TEXCOORD_0": 38
          },
          "indices": 39,
          "mode": 4,
          "material": 4
        }
      ],
      "name": "part009"
    },
    {
      "primitives": [
        {
          "attributes": {
            "POSITION": 40,
            "NORMAL": 41,
            "TEXCOORD_0": 42
          },
          "indices": 43,
          "mode": 4,
          "material": 5
        }
      ],
      "name": "part010"
    },
    {
      "primitives": [
        {
          "attributes": {
            "POSITION": 44,
            "NORMAL": 45,
            "TEXCOORD_0": 46
          },
          "indices": 47,
          "mode": 4,
          "material": 15
        }
      ],
      "name": "part011"
    },
    {
      "primitives": [
        {
          "attributes": {
            "POSITION": 48,
            "NORMAL": 49,
            "TEXCOORD_0": 50
          },
          "indices": 51,
          "mode": 4,
          "material": 11
        }
      ],
      "name": "part012"
    },
    {
      "primitives": [
        {
          "attributes": {
            "POSITION": 52,
            "NORMAL": 53,
            "TEXCOORD_0": 54
          },
          "indices": 55,
          "mode": 4,
          "material": 12
        }
      ],
      "name": "part013"
    },
    {
      "primitives": [
        {
          "attributes": {
            "POSITION": 56,
            "NORMAL": 57,
            "TEXCOORD_0": 58
          },
          "indices": 59,
          "mode": 4,
          "material": 14
        }
      ],
      "name": "part014"
    },
    {
      "primitives": [
        {
          "attributes": {
            "POSITION": 60,
            "NORMAL": 61,
            "TEXCOORD_0": 62
          },
          "indices": 63,
          "mode": 4,
          "material": 13
        }
      ],
      "name": "part015"
    }
  ],
  "accessors": [
    {
      "bufferView": 1,
      "byteOffset": 0,
      "componentType": 5126,
      "count": 134,
      "type": "VEC3",
      "min": [
        -1.49308,
        0.05036,
        0.1532
      ],
      "max": [
        3.63692,
        17.83882,
        2.46046
      ]
    },
    {
      "bufferView": 2,
      "byteOffset": 0,
      "componentType": 5126,
      "count": 134,
      "type": "VEC3"
    },
    {
      "bufferView": 3,
      "byteOffset": 0,
      "componentType": 5126,
      "count": 134,
      "type": "VEC2"
    },
    {
      "bufferView": 0,
      "byteOffset": 0,
      "componentType": 5125,
      "count": 264,
      "type": "SCALAR"
    },
    {
      "bufferView": 1,
      "byteOffset": 1608,
      "componentType": 5126,
      "count": 148,
      "type": "VEC3",
      "min": [
        3.59692,
        14.73342,
        -4.02954
      ],
      "max": [
        3.86692,
        17.83882,
        0.1532
      ]
    },
    {
      "bufferView": 2,
      "byteOffset": 1608,
      "componentType": 5126,
      "count": 148,
      "type": "VEC3"
    },
    {
      "bufferView": 3,
      "byteOffset": 1072,
      "componentType": 5126,
      "count": 148,
      "type": "VEC2"
    },
    {
      "bufferView": 0,
      "byteOffset": 1056,
      "componentType": 5125,
      "count": 294,
      "type": "SCALAR"
    },
    {
      "bufferView": 1,
      "byteOffset": 3384,
      "componentType": 5126,
      "count": 145,
      "type": "VEC3",
      "min": [
        -1.08308,
        0.0,
        -3.55954
      ],
      "max": [
        4.03692,
        18.18553,
        2.85046
      ]
    },
    {
      "bufferView": 2,
      "byteOffset": 3384,
      "componentType": 5126,
      "count": 145,
      "type": "VEC3"
    },
    {
      "bufferView": 3,
      "byteOffset": 2256,
      "componentType": 5126,
      "count": 145,
      "type": "VEC2"
    },
    {
      "bufferView": 0,
      "byteOffset": 2232,
      "componentType": 5125,
      "count": 285,
      "type": "SCALAR"
    },
    {
      "bufferView": 1,
      "byteOffset": 5124,
      "componentType": 5126,
      "count": 4,
      "type": "VEC3",
      "min": [
        -1.49308,
        14.73342,
        -4.02954
      ],
      "max": [
        -1.49308,
        17.83882,
        0.1532
      ]
    },
    {
      "bufferView": 2,
      "byteOffset": 5124,
      "componentType": 5126,
      "count": 4,
      "type": "VEC3"
    },
    {
      "bufferView": 3,
      "byteOffset": 3416,
      "componentType": 5126,
      "count": 4,
      "type": "VEC2"
    },
    {
      "bufferView": 0,
      "byteOffset": 3372,
      "componentType": 5125,
      "count": 6,
      "type": "SCALAR"
    },
    {
      "bufferView": 1,
      "byteOffset": 5172,
      "componentType": 5126,
      "count": 36,
      "type": "VEC3",
      "min": [
        -1.55308,
        17.91553,
        -4.08954
      ],
      "max": [
        3.69692,
        17.94553,
        2.70046
      ]
    },
    {
      "bufferView": 2,
      "byteOffset": 5172,
      "componentType": 5126,
      "count": 36,
      "type": "VEC3"
    },
    {
      "bufferView": 3,
      "byteOffset": 3448,
      "componentType": 5126,
      "count": 36,
      "type": "VEC2"
    },
    {
      "bufferView": 0,
      "byteOffset": 3396,
      "componentType": 5125,
      "count": 102,
      "type": "SCALAR"
    },
    {
      "bufferView": 1,
      "byteOffset": 5604,
      "componentType": 5126,
      "count": 20,
      "type": "VEC3",
      "min": [
        -1.55308,
        17.83882,
        -4.08954
      ],
      "max": [
        3.69692,
        17.94553,
        0.2132
      ]
    },
    {
      "bufferView": 2,
      "byteOffset": 5604,
      "componentType": 5126,
      "count": 20,
      "type": "VEC3"
    },
    {
      "bufferView": 3,
      "byteOffset": 3736,
      "componentType": 5126,
      "count": 20,
      "type": "VEC2"
    },
    {
      "bufferView": 0,
      "byteOffset": 3804,
      "componentType": 5125,
      "count": 30,
      "type": "SCALAR"
    },
    {
      "bufferView": 1,
      "byteOffset": 5844,
      "componentType": 5126,
      "count": 28,
      "type": "VEC3",
      "min": [
        -1.55308,
        0.13475,
        -4.08954
      ],
      "max": [
        3.69692,
        17.83882,
        0.2132
      ]
    },
    {
      "bufferView": 2,
      "byteOffset": 5844,
      "componentType": 5126,
      "count": 28,
      "type": "VEC3"
    },
    {
      "bufferView": 3,
      "byteOffset": 3896,
      "componentType": 5126,
      "count": 28,
      "type": "VEC2"
    },
    {
      "bufferView": 0,
      "byteOffset": 3924,
      "componentType": 5125,
      "count": 66,
      "type": "SCALAR"
    },
    {
      "bufferView": 1,
      "byteOffset": 6180,
      "componentType": 5126,
      "count": 75,
      "type": "VEC3",
      "min": [
        0.85653,
        17.91553,
        -1.18196
      ],
      "max": [
        0.99653,
        25.37553,
        -1.04196
      ]
    },
    {
      "bufferView": 2,
      "byteOffset": 6180,
      "componentType": 5126,
      "count": 75,
      "type": "VEC3"
    },
    {
      "bufferView": 3,
      "byteOffset": 4120,
      "componentType": 5126,
      "count": 75,
      "type": "VEC2"
    },
    {
      "bufferView": 0,
      "byteOffset": 4188,
      "componentType": 5125,
      "count": 222,
      "type": "SCALAR"
    },
    {
      "bufferView": 1,
      "byteOffset": 7080,
      "componentType": 5126,
      "count": 196,
      "type": "VEC3",
      "min": [
        -1.49308,
        14.73342,
        -4.12954
      ],
      "max": [
        3.63692,
        17.83882,
        -3.98954
      ]
    },
    {
      "bufferView": 2,
      "byteOffset": 7080,
      "componentType": 5126,
      "count": 196,
      "type": "VEC3"
    },
    {
      "bufferView": 3,
      "byteOffset": 4720,
      "componentType": 5126,
      "count": 196,
      "type": "VEC2"
    },
    {
      "bufferView": 0,
      "byteOffset": 5076,
      "componentType": 5125,
      "count": 468,
      "type": "SCALAR"
    },
    {
      "bufferView": 1,
      "byteOffset": 9432,
      "componentType": 5126,
      "count": 17,
      "type": "VEC3",
      "min": [
        -1.05308,
        0.0,
        -3.55954
      ],
      "max": [
        3.97692,
        0.0,
        2.85046
      ]
    },
    {
      "bufferView": 2,
      "byteOffset": 9432,
      "componentType": 5126,
      "count": 17,
      "type": "VEC3"
    },
    {
      "bufferView": 3,
      "byteOffset": 6288,
      "componentType": 5126,
      "count": 17,
      "type": "VEC2"
    },
    {
      "bufferView": 0,
      "byteOffset": 6948,
      "componentType": 5125,
      "count": 33,
      "type": "SCALAR"
    },
    {
      "bufferView": 1,
      "byteOffset": 9636,
      "componentType": 5126,
      "count": 17,
      "type": "VEC3",
      "min": [
        -1.05308,
        0.0,
        -3.55954
      ],
      "max": [
        3.97692,
        0.0,
        2.85046
      ]
    },
    {
      "bufferView": 2,
      "byteOffset": 9636,
      "componentType": 5126,
      "count": 17,
      "type": "VEC3"
    },
    {
      "bufferView": 3,
      "byteOffset": 6424,
      "componentType": 5126,
      "count": 17,
      "type": "VEC2"
    },
    {
      "bufferView": 0,
      "byteOffset": 7080,
      "componentType": 5125,
      "count": 33,
      "type": "SCALAR"
    },
    {
      "bufferView": 1,
      "byteOffset": 9840,
      "componentType": 5126,
      "count": 216,
      "type": "VEC3",
      "min": [
        -1.37197,
        17.26216,
        -4.11668
      ],
      "max": [
        -1.3508,
        18.12216,
        -4.09608
      ]
    },
    {
      "bufferView": 2,
      "byteOffset": 9840,
      "componentType": 5126,
      "count": 216,
      "type": "VEC3"
    },
    {
      "bufferView": 3,
      "byteOffset": 6560,
      "componentType": 5126,
      "count": 216,
      "type": "VEC2"
    },
    {
      "bufferView": 0,
      "byteOffset": 7212,
      "componentType": 5125,
      "count": 354,
      "type": "SCALAR"
    },
    {
      "bufferView": 1,
      "byteOffset": 12432,
      "componentType": 5126,
      "count": 66,
      "type": "VEC3",
      "min": [
        -1.05308,
        0.0,
        -3.55954
      ],
      "max": [
        3.17692,
        14.73342,
        -2.03954
      ]
    },
    {
      "bufferView": 2,
      "byteOffset": 12432,
      "componentType": 5126,
      "count": 66,
      "type": "VEC3"
    },
    {
      "bufferView": 3,
      "byteOffset": 8288,
      "componentType": 5126,
      "count": 66,
      "type": "VEC2"
    },
    {
      "bufferView": 0,
      "byteOffset": 8628,
      "componentType": 5125,
      "count": 132,
      "type": "SCALAR"
    },
    {
      "bufferView": 1,
      "byteOffset": 13224,
      "componentType": 5126,
      "count": 4,
      "type": "VEC3",
      "min": [
        -0.90385,
        7.43475,
        -3.55954
      ],
      "max": [
        2.98615,
        7.43475,
        -2.12954
      ]
    },
    {
      "bufferView": 2,
      "byteOffset": 13224,
      "componentType": 5126,
      "count": 4,
      "type": "VEC3"
    },
    {
      "bufferView": 3,
      "byteOffset": 8816,
      "componentType": 5126,
      "count": 4,
      "type": "VEC2"
    },
    {
      "bufferView": 0,
      "byteOffset": 9156,
      "componentType": 5125,
      "count": 6,
      "type": "SCALAR"
    },
    {
      "bufferView": 1,
      "byteOffset": 13272,
      "componentType": 5126,
      "count": 16,
      "type": "VEC3",
      "min": [
        3.95692,
        0.0,
        -3.20458
      ],
      "max": [
        3.97692,
        1.28,
        -2.61458
      ]
    },
    {
      "bufferView": 2,
      "byteOffset": 13272,
      "componentType": 5126,
      "count": 16,
      "type": "VEC3"
    },
    {
      "bufferView": 3,
      "byteOffset": 8848,
      "componentType": 5126,
      "count": 16,
      "type": "VEC2"
    },
    {
      "bufferView": 0,
      "byteOffset": 9180,
      "componentType": 5125,
      "count": 24,
      "type": "SCALAR"
    },
    {
      "bufferView": 1,
      "byteOffset": 13464,
      "componentType": 5126,
      "count": 12,
      "type": "VEC3",
      "min": [
        3.17692,
        1.53272,
        -3.55954
      ],
      "max": [
        4.03692,
        2.06093,
        -2.22533
      ]
    },
    {
      "bufferView": 2,
      "byteOffset": 13464,
      "componentType": 5126,
      "count": 12,
      "type": "VEC3"
    },
    {
      "bufferView": 3,
      "byteOffset": 8976,
      "componentType": 5126,
      "count": 12,
      "type": "VEC2"
    },
    {
      "bufferView": 0,
      "byteOffset": 9276,
      "componentType": 5125,
      "count": 18,
      "type": "SCALAR"
    }
  ],
  "materials": [
    {
      "pbrMetallicRoughness": {
        "baseColorFactor": [
          0.0,
          0.0,
          0.0,
          1.0
        ],
        "roughnessFactor": 0.0,
        "metallicFactor": 0.0
      },
      "emissiveFactor": [
        0.0,
        0.0,
        0.0
      ],
      "doubleSided": true
    },
    {
      "pbrMetallicRoughness": {
        "baseColorFactor": [
          0.0,
          0.0,
          0.54509800672531128,
          1.0
        ],
        "roughnessFactor": 0.0,
        "metallicFactor": 0.0
      },
      "emissiveFactor": [
        0.0,
        0.0,
        0.0
      ],
      "doubleSided": true
    },
    {
      "pbrMetallicRoughness": {
        "baseColorFactor": [
          0.27058818936347961,
          0.46274510025978088,
          0.59215688705444336,
          1.0
        ],
        "roughnessFactor": 0.0,
        "metallicFactor": 0.0
      },
      "emissiveFactor": [
        0.0,
        0.0,
        0.0
      ],
      "doubleSided": true
    },
    {
      "pbrMetallicRoughness": {
        "baseColorFactor": [
          0.46666669845581055,
          0.53333330154418945,
          0.60000002384185791,
          1.0
        ],
        "roughnessFactor": 0.0,
        "metallicFactor": 0.0
      },
      "emissiveFactor": [
        0.0,
        0.0,
        0.0
      ],
      "doubleSided": true
    },
    {
      "pbrMetallicRoughness": {
        "baseColorFactor": [
          0.54509800672531128,
          0.53333330154418945,
          0.60392159223556519,
          1.0
        ],
        "roughnessFactor": 0.0,
        "metallicFactor": 0.0
      },
      "emissiveFactor": [
        0.0,
        0.0,
        0.0
      ]
    },
    {
      "pbrMetallicRoughness": {
        "baseColorFactor": [
          0.89019608497619629,
          0.882352888584137,
          0.87058818340301514,
          1.0
        ],
        "roughnessFactor": 0.0,
        "metallicFactor": 0.0
      },
      "emissiveFactor": [
        0.0,
        0.0,
        0.0
      ]
    },
    {
      "pbrMetallicRoughness": {
        "baseColorFactor": [
          1.0,
          1.0,
          1.0,
          1.0
        ],
        "roughnessFactor": 0.0,
        "metallicFactor": 0.0
      },
      "emissiveFactor": [
        0.0,
        0.0,
        0.0
      ],
      "doubleSided": true
    },
    {
      "pbrMetallicRoughness": {
        "baseColorFactor": [
          1.0,
          1.0,
          1.0,
          1.0
        ],
        "roughnessFactor": 0.0,
        "metallicFactor": 0.0,
        "baseColorTexture": {
          "index": 0
        }
      },
      "emissiveFactor": [
        0.0,
        0.0,
        0.0
      ],
      "doubleSided": true
    },
    {
      "pbrMetallicRoughness": {
        "baseColorFactor": [
          1.0,
          1.0,
          1.0,
          1.0
        ],
        "roughnessFactor": 0.0,
        "metallicFactor": 0.0,
        "baseColorTexture": {
          "index": 1
        }
      },
      "emissiveFactor": [
        0.0,
        0.0,
        0.0
      ],
      "doubleSided": true
    },
    {
      "pbrMetallicRoughness": {
        "baseColorFactor": [
          1.0,
          1.0,
          1.0,
          1.0
        ],
        "roughnessFactor": 0.0,
        "metallicFactor": 0.0,
        "baseColorTexture": {
          "index": 2
        }
      },
      "emissiveFactor": [
        0.0,
        0.0,
        0.0
      ],
      "doubleSided": true
    },
    {
      "pbrMetallicRoughness": {
        "baseColorFactor": [
          1.0,
          1.0,
          1.0,
          1.0
        ],
        "roughnessFactor": 0.0,
        "metallicFactor": 0.0,
        "baseColorTexture": {
          "index": 3
        }
      },
      "emissiveFactor": [
        0.0,
        0.0,
        0.0
      ],
      "doubleSided": true
    },
    {
      "pbrMetallicRoughness": {
        "baseColorFactor": [
          1.0,
          1.0,
          1.0,
          1.0
        ],
        "roughnessFactor": 0.0,
        "metallicFactor": 0.0,
        "baseColorTexture": {
          "index": 4
        }
      },
      "emissiveFactor": [
        0.0,
        0.0,
        0.0
      ],
      "doubleSided": true
    },
    {
      "pbrMetallicRoughness": {
        "baseColorFactor": [
          1.0,
          1.0,
          1.0,
          1.0
        ],
        "roughnessFactor": 0.0,
        "metallicFactor": 0.0,
        "baseColorTexture": {
          "index": 5
        }
      },
      "emissiveFactor": [
        0.0,
        0.0,
        0.0
      ],
      "doubleSided": true
    },
    {
      "pbrMetallicRoughness": {
        "baseColorFactor": [
          1.0,
          1.0,
          1.0,
          1.0
        ],
        "roughnessFactor": 0.0,
        "metallicFactor": 0.0,
        "baseColorTexture": {
          "index": 6
        }
      },
      "emissiveFactor": [
        0.0,
        0.0,
        0.0
      ],
      "doubleSided": true
    },
    {
      "pbrMetallicRoughness": {
        "baseColorFactor": [
          1.0,
          1.0,
          1.0,
          1.0
        ],
        "roughnessFactor": 0.0,
        "metallicFactor": 0.0,
        "baseColorTexture": {
          "index": 7
        }
      },
      "emissiveFactor": [
        0.0,
        0.0,
        0.0
      ],
      "doubleSided": true
    },
    {
      "pbrMetallicRoughness": {
        "baseColorFactor": [
          1.0,
          1.0,
          1.0,
          1.0
        ],
        "roughnessFactor": 0.0,
        "metallicFactor": 0.0,
        "baseColorTexture": {
          "index": 8
        }
      },
      "emissiveFactor": [
        0.0,
        0.0,
        0.0
      ],
      "doubleSided": true
    }
  ],
  "textures": [
    {
      "source": 0,
      "name": "texture"
    },
    {
      "source": 1,
      "name": "texture_0"
    },
    {
      "source": 2,
      "name": "texture_1"
    },
    {
      "source": 3,
      "name": "texture_2"
    },
    {
      "source": 4,
      "name": "texture_3"
    },
    {
      "source": 5,
      "name": "texture_4"
    },
    {
      "source": 6,
      "name": "texture_5"
    },
    {
      "source": 7,
      "name": "texture_6"
    },
    {
      "source": 8,
      "name": "texture_7"
    }
  ],
  "images": [
    {
      "uri": "untitled\\texture.jpg"
    },
    {
      "uri": "untitled\\texture_0.jpg"
    },
    {
      "uri": "untitled\\texture_1.jpg"
    },
    {
      "uri": "untitled\\texture_2.jpg"
    },
    {
      "uri": "untitled\\texture_3.jpg"
    },
    {
      "uri": "untitled\\texture_4.jpg"
    },
    {
      "uri": "untitled\\texture_5.jpg"
    },
    {
      "uri": "untitled\\texture_6.jpg"
    },
    {
      "uri": "untitled\\texture_7.jpg"
    }
  ],
  "bufferViews": [
    {
      "buffer": 0,
      "byteOffset": 0,
      "byteLength": 9348
    },
    {
      "buffer": 0,
      "byteOffset": 9348,
      "byteLength": 13608
    },
    {
      "buffer": 0,
      "byteOffset": 22956,
      "byteLength": 13608
    },
    {
      "buffer": 0,
      "byteOffset": 36564,
      "byteLength": 9072
    }
  ],
  "buffers": [
    {
      "byteLength": 45636,
      "uri": "TorreSIXE.bin"
    }
  ]
}